{
  "accessors": [
    {
      "bufferView": 2,
      "componentType": 5126,
      "count": 188,
      "max": [
        0.25682398676872253,
        -0.40794599056243896,
        0.33681100606918335
      ],
      "min": [
        -0.6726890206336975,
        -1.0,
        -0.3817340135574341
      ],
      "type": "VEC3"
    },
    {
      "bufferView": 2,
      "byteOffset": 2256,
      "componentType": 5126,
      "count": 188,
      "max": [
        0.9999708533287048,
        1.0,
        0.9999710917472839
      ],
      "min": [
        -0.9999708533287048,
        -0.9999991059303284,
        -0.9999710917472839
      ],
      "type": "VEC3"
    },
    {
      "bufferView": 3,
      "componentType": 5126,
      "count": 188,
      "max": [
        1.0,
        0.9948450922966003,
        0.4344135820865631,
        1.0
      ],
      "min": [
        -0.3826461136341095,
        -0.9999715089797974,
        -0.43440839648246765,
        1.0
      ],
      "type": "VEC4"
    },
    {
      "bufferView": 1,
      "componentType": 5126,
      "count": 188,
      "max": [
        0.9980469942092896,
        0.9622290134429932
      ],
      "min": [
        0.0019531298894435167,
        0.0019531298894435167
      ],
      "type": "VEC2"
    },
    {
      "bufferView": 0,
      "componentType": 5125,
      "count": 624,
      "type": "SCALAR"
    },
    {
      "bufferView": 2,
      "byteOffset": 4512,
      "componentType": 5126,
      "count": 196,
      "max": [
        0.179299995303154,
        1.0,
        -0.32509198784828186
      ],
      "min": [
        -0.44376298785209656,
        0.06540510058403015,
        -0.3817340135574341
      ],
      "type": "VEC3"
    },
    {
      "bufferView": 2,
      "byteOffset": 6864,
      "componentType": 5126,
      "count": 196,
      "max": [
        0.9999998807907104,
        0.9999996423721313,
        1.0
      ],
      "min": [
        -0.9999998807907104,
        -0.9999996423721313,
        -0.9999996423721313
      ],
      "type": "VEC3"
    },
    {
      "bufferView": 3,
      "byteOffset": 3008,
      "componentType": 5126,
      "count": 196,
      "max": [
        0.999986469745636,
        0.9999867081642151,
        0.9999926090240479,
        1.0
      ],
      "min": [
        -0.7233234643936157,
        -1.0,
        -0.9999926686286926,
        1.0
      ],
      "type": "VEC4"
    },
    {
      "bufferView": 1,
      "byteOffset": 1504,
      "componentType": 5126,
      "count": 196,
      "max": [
        0.9980469942092896,
        0.9443519711494446
      ],
      "min": [
        0.0019531298894435167,
        0.0019531298894435167
      ],
      "type": "VEC2"
    },
    {
      "bufferView": 0,
      "byteOffset": 2496,
      "componentType": 5125,
      "count": 636,
      "type": "SCALAR"
    },
    {
      "bufferView": 2,
      "byteOffset": 9216,
      "componentType": 5126,
      "count": 224,
      "max": [
        0.6828770041465759,
        -0.39018499851226807,
        0.3456209897994995
      ],
      "min": [
        -0.6828770041465759,
        -0.5109819769859314,
        -0.3905450105667114
      ],
      "type": "VEC3"
    },
    {
      "bufferView": 2,
      "byteOffset": 11904,
      "componentType": 5126,
      "count": 224,
      "max": [
        0.9999309778213501,
        0.9999985098838806,
        0.9988487362861633
      ],
      "min": [
        -0.9999319911003113,
        -0.9999978542327881,
        -0.9988600015640259
      ],
      "type": "VEC3"
    },
    {
      "bufferView": 3,
      "byteOffset": 6144,
      "componentType": 5126,
      "count": 224,
      "max": [
        0.9999991655349731,
        0.9999721050262451,
        0.9998104572296143,
        1.0
      ],
      "min": [
        -0.9999182820320129,
        -0.9999416470527649,
        -0.9999986886978149,
        1.0
      ],
      "type": "VEC4"
    },
    {
      "bufferView": 1,
      "byteOffset": 3072,
      "componentType": 5126,
      "count": 224,
      "max": [
        0.9980469942092896,
        0.8809810280799866
      ],
      "min": [
        0.0019530999707058072,
        0.0019531199941411614
      ],
      "type": "VEC2"
    },
    {
      "bufferView": 0,
      "byteOffset": 5040,
      "componentType": 5125,
      "count": 756,
      "type": "SCALAR"
    },
    {
      "bufferView": 2,
      "byteOffset": 14592,
      "componentType": 5126,
      "count": 350,
      "max": [
        0.6726890206336975,
        -0.512116014957428,
        0.33681100606918335
      ],
      "min": [
        -0.25051000714302063,
        -0.8950629830360413,
        -0.3817340135574341
      ],
      "type": "VEC3"
    },
    {
      "bufferView": 2,
      "byteOffset": 18792,
      "componentType": 5126,
      "count": 350,
      "max": [
        1.0,
        1.0,
        1.0
      ],
      "min": [
        -1.0,
        -1.0,
        -1.0
      ],
      "type": "VEC3"
    },
    {
      "bufferView": 3,
      "byteOffset": 9728,
      "componentType": 5126,
      "count": 350,
      "max": [
        1.0,
        1.0,
        1.0,
        1.0
      ],
      "min": [
        -1.0,
        -1.0,
        -1.0,
        1.0
      ],
      "type": "VEC4"
    },
    {
      "bufferView": 1,
      "byteOffset": 4864,
      "componentType": 5126,
      "count": 350,
      "max": [
        0.9980469942092896,
        0.9359089732170105
      ],
      "min": [
        0.0019531298894435167,
        0.0019531298894435167
      ],
      "type": "VEC2"
    },
    {
      "bufferView": 0,
      "byteOffset": 8064,
      "componentType": 5125,
      "count": 1248,
      "type": "SCALAR"
    },
    {
      "bufferView": 2,
      "byteOffset": 22992,
      "componentType": 5126,
      "count": 318,
      "max": [
        0.3763889968395233,
        -0.6662480235099792,
        0.3905450105667114
      ],
      "min": [
        0.04579019919037819,
        -0.7359769940376282,
        0.3193550109863281
      ],
      "type": "VEC3"
    },
    {
      "bufferView": 2,
      "byteOffset": 26808,
      "componentType": 5126,
      "count": 318,
      "max": [
        1.0,
        1.0,
        1.0
      ],
      "min": [
        -1.0,
        -1.0,
        -0.9978054761886597
      ],
      "type": "VEC3"
    },
    {
      "bufferView": 3,
      "byteOffset": 15328,
      "componentType": 5126,
      "count": 318,
      "max": [
        1.0,
        1.0,
        0.9293540716171265,
        1.0
      ],
      "min": [
        -1.0,
        -1.0,
        -0.9176357984542847,
        1.0
      ],
      "type": "VEC4"
    },
    {
      "bufferView": 1,
      "byteOffset": 7664,
      "componentType": 5126,
      "count": 318,
      "max": [
        0.48103201389312744,
        0.99058997631073
      ],
      "min": [
        0.003946289885789156,
        0.8157070279121399
      ],
      "type": "VEC2"
    },
    {
      "bufferView": 0,
      "byteOffset": 13056,
      "componentType": 5125,
      "count": 1392,
      "type": "SCALAR"
    },
    {
      "bufferView": 2,
      "byteOffset": 30624,
      "componentType": 5126,
      "count": 1431,
      "max": [
        -0.08123739808797836,
        -0.08712729811668396,
        -0.12390200048685074
      ],
      "min": [
        -0.16250400245189667,
        -0.39524000883102417,
        -0.3771570026874542
      ],
      "type": "VEC3"
    },
    {
      "bufferView": 2,
      "byteOffset": 47796,
      "componentType": 5126,
      "count": 1431,
      "max": [
        1.0,
        1.0,
        1.0
      ],
      "min": [
        -1.0,
        -1.0,
        -1.0
      ],
      "type": "VEC3"
    },
    {
      "bufferView": 3,
      "byteOffset": 20416,
      "componentType": 5126,
      "count": 1431,
      "max": [
        0.999980092048645,
        1.0,
        1.0,
        1.0
      ],
      "min": [
        -1.0,
        -1.0,
        -1.0,
        -1.0
      ],
      "type": "VEC4"
    },
    {
      "bufferView": 1,
      "byteOffset": 10208,
      "componentType": 5126,
      "count": 1431,
      "max": [
        0.9285969734191895,
        0.9486089944839478
      ],
      "min": [
        0.0019531298894435167,
        0.651839017868042
      ],
      "type": "VEC2"
    },
    {
      "bufferView": 0,
      "byteOffset": 18624,
      "componentType": 5125,
      "count": 6912,
      "type": "SCALAR"
    },
    {
      "bufferView": 2,
      "byteOffset": 64968,
      "componentType": 5126,
      "count": 318,
      "max": [
        0.36368098855018616,
        0.5988270044326782,
        -0.10877300053834915
      ],
      "min": [
        0.31901198625564575,
        0.3870440125465393,
        -0.1543779969215393
      ],
      "type": "VEC3"
    },
    {
      "bufferView": 2,
      "byteOffset": 68784,
      "componentType": 5126,
      "count": 318,
      "max": [
        1.0,
        1.0,
        1.0
      ],
      "min": [
        -1.0,
        -1.0,
        -0.9978054761886597
      ],
      "type": "VEC3"
    },
    {
      "bufferView": 3,
      "byteOffset": 43312,
      "componentType": 5126,
      "count": 318,
      "max": [
        1.0,
        1.0,
        0.9293680787086487,
        1.0
      ],
      "min": [
        -1.0,
        -1.0,
        -0.9176532030105591,
        1.0
      ],
      "type": "VEC4"
    },
    {
      "bufferView": 1,
      "byteOffset": 21656,
      "componentType": 5126,
      "count": 318,
      "max": [
        0.48103201389312744,
        0.99058997631073
      ],
      "min": [
        0.003946289885789156,
        0.8157070279121399
      ],
      "type": "VEC2"
    },
    {
      "bufferView": 0,
      "byteOffset": 46272,
      "componentType": 5125,
      "count": 1392,
      "type": "SCALAR"
    },
    {
      "bufferView": 2,
      "byteOffset": 72600,
      "componentType": 5126,
      "count": 96,
      "max": [
        -0.5677509903907776,
        -0.512116014957428,
        0.33681100606918335
      ],
      "min": [
        -0.6726890206336975,
        -0.8950629830360413,
        -0.3817340135574341
      ],
      "type": "VEC3"
    },
    {
      "bufferView": 2,
      "byteOffset": 73752,
      "componentType": 5126,
      "count": 96,
      "max": [
        0.9999973773956299,
        0.9999708533287048,
        0.999969482421875
      ],
      "min": [
        -0.9999973773956299,
        -0.9999708533287048,
        -0.999969482421875
      ],
      "type": "VEC3"
    },
    {
      "bufferView": 3,
      "byteOffset": 48400,
      "componentType": 5126,
      "count": 96,
      "max": [
        0.9952862858772278,
        0.4325297772884369,
        0.9957380294799805,
        1.0
      ],
      "min": [
        -0.9918708205223083,
        -0.9911355376243591,
        -0.9924076795578003,
        1.0
      ],
      "type": "VEC4"
    },
    {
      "bufferView": 1,
      "byteOffset": 24200,
      "componentType": 5126,
      "count": 96,
      "max": [
        0.9964209794998169,
        0.9731230139732361
      ],
      "min": [
        0.0019531298894435167,
        0.0019531298894435167
      ],
      "type": "VEC2"
    },
    {
      "bufferView": 0,
      "byteOffset": 51840,
      "componentType": 5125,
      "count": 324,
      "type": "SCALAR"
    },
    {
      "bufferView": 2,
      "byteOffset": 74904,
      "componentType": 5126,
      "count": 1938,
      "max": [
        0.18373200297355652,
        -0.24231800436973572,
        0.3177430033683777
      ],
      "min": [
        -0.4274739921092987,
        -0.3910450041294098,
        -0.29346299171447754
      ],
      "type": "VEC3"
    },
    {
      "bufferView": 2,
      "byteOffset": 98160,
      "componentType": 5126,
      "count": 1938,
      "max": [
        1.0,
        1.0,
        1.0
      ],
      "min": [
        -1.0,
        -0.9979567527770996,
        -1.0
      ],
      "type": "VEC3"
    },
    {
      "bufferView": 3,
      "byteOffset": 49936,
      "componentType": 5126,
      "count": 1938,
      "max": [
        1.0,
        0.9958645105361938,
        1.0,
        1.0
      ],
      "min": [
        -1.0,
        -1.0,
        -1.0,
        1.0
      ],
      "type": "VEC4"
    },
    {
      "bufferView": 1,
      "byteOffset": 24968,
      "componentType": 5126,
      "count": 1938,
      "max": [
        0.9840999841690063,
        0.9980469942092896
      ],
      "min": [
        0.0019531298894435167,
        0.0019531298894435167
      ],
      "type": "VEC2"
    },
    {
      "bufferView": 0,
      "byteOffset": 53136,
      "componentType": 5125,
      "count": 9984,
      "type": "SCALAR"
    },
    {
      "bufferView": 2,
      "byteOffset": 121416,
      "componentType": 5126,
      "count": 256,
      "max": [
        0.6397070288658142,
        0.9889609813690186,
        -0.15104499459266663
      ],
      "min": [
        0.27806100249290466,
        0.3090139925479889,
        -0.3817340135574341
      ],
      "type": "VEC3"
    },
    {
      "bufferView": 2,
      "byteOffset": 124488,
      "componentType": 5126,
      "count": 256,
      "max": [
        0.9999964833259583,
        0.9999944567680359,
        1.0
      ],
      "min": [
        -0.9999964833259583,
        -0.9999944567680359,
        -1.0
      ],
      "type": "VEC3"
    },
    {
      "bufferView": 3,
      "byteOffset": 80944,
      "componentType": 5126,
      "count": 256,
      "max": [
        1.0,
        0.9999999403953552,
        0.9950101971626282,
        1.0
      ],
      "min": [
        -1.0,
        -1.0,
        -0.9999972581863403,
        1.0
      ],
      "type": "VEC4"
    },
    {
      "bufferView": 1,
      "byteOffset": 40472,
      "componentType": 5126,
      "count": 256,
      "max": [
        0.9715049862861633,
        0.8509309887886047
      ],
      "min": [
        0.0019531298894435167,
        0.0019531298894435167
      ],
      "type": "VEC2"
    },
    {
      "bufferView": 0,
      "byteOffset": 93072,
      "componentType": 5125,
      "count": 828,
      "type": "SCALAR"
    }
  ],
  "asset": {
    "extras": {
      "author": "Timothy Ahene (https://sketchfab.com/timothyahene)",
      "license": "CC-BY-4.0 (http://creativecommons.org/licenses/by/4.0/)",
      "source": "https://sketchfab.com/3d-models/sink-and-vanity-6e20541ed8f543b28d2e71aef79b7b5e",
      "title": "Sink and vanity"
    },
    "generator": "Sketchfab-12.67.0",
    "version": "2.0"
  },
  "bufferViews": [
    {
      "buffer": 0,
      "byteLength": 96384,
      "name": "floatBufferViews",
      "target": 34963
    },
    {
      "buffer": 0,
      "byteLength": 42520,
      "byteOffset": 96384,
      "byteStride": 8,
      "name": "floatBufferViews",
      "target": 34962
    },
    {
      "buffer": 0,
      "byteLength": 127560,
      "byteOffset": 138904,
      "byteStride": 12,
      "name": "floatBufferViews",
      "target": 34962
    },
    {
      "buffer": 0,
      "byteLength": 85040,
      "byteOffset": 266464,
      "byteStride": 16,
      "name": "floatBufferViews",
      "target": 34962
    }
  ],
  "buffers": [
    {
      "byteLength": 351504,
      "uri": "scene.bin"
    }
  ],
  "images": [
    {
      "uri": "textures/Glass_and_cabinet_baseColor.png"
    },
    {
      "uri": "textures/Glass_and_cabinet_metallicRoughness.png"
    },
    {
      "uri": "textures/Glass_and_cabinet_normal.png"
    },
    {
      "uri": "textures/Sink_baseColor.jpeg"
    },
    {
      "uri": "textures/Sink_metallicRoughness.png"
    },
    {
      "uri": "textures/Sink_normal.png"
    },
    {
      "uri": "textures/Wood_and_Faucet_baseColor.jpeg"
    },
    {
      "uri": "textures/Wood_and_Faucet_metallicRoughness.png"
    },
    {
      "uri": "textures/Wood_and_Faucet_normal.png"
    },
    {
      "uri": "textures/Drawer_and_handle_baseColor.jpeg"
    },
    {
      "uri": "textures/Drawer_and_handle_metallicRoughness.png"
    },
    {
      "uri": "textures/Drawer_and_handle_normal.png"
    },
    {
      "uri": "textures/Mirror_baseColor.jpeg"
    },
    {
      "uri": "textures/Mirror_metallicRoughness.png"
    },
    {
      "uri": "textures/Mirror_normal.png"
    }
  ],
  "materials": [
    {
      "alphaMode": "BLEND",
      "doubleSided": true,
      "name": "Glass_and_cabinet",
      "normalTexture": {
        "index": 2
      },
      "occlusionTexture": {
        "index": 1
      },
      "pbrMetallicRoughness": {
        "baseColorTexture": {
          "index": 0
        },
        "metallicRoughnessTexture": {
          "index": 1
        }
      }
    },
    {
      "doubleSided": true,
      "name": "Sink",
      "normalTexture": {
        "index": 5
      },
      "occlusionTexture": {
        "index": 4
      },
      "pbrMetallicRoughness": {
        "baseColorTexture": {
          "index": 3
        },
        "metallicRoughnessTexture": {
          "index": 4
        }
      }
    },
    {
      "doubleSided": true,
      "name": "Wood_and_Faucet",
      "normalTexture": {
        "index": 8
      },
      "occlusionTexture": {
        "index": 7
      },
      "pbrMetallicRoughness": {
        "baseColorTexture": {
          "index": 6
        },
        "metallicRoughnessTexture": {
          "index": 7
        }
      }
    },
    {
      "doubleSided": true,
      "name": "Drawer_and_handle",
      "normalTexture": {
        "index": 11
      },
      "occlusionTexture": {
        "index": 10
      },
      "pbrMetallicRoughness": {
        "baseColorTexture": {
          "index": 9
        },
        "metallicRoughnessTexture": {
          "index": 10
        }
      }
    },
    {
      "doubleSided": true,
      "name": "Mirror",
      "normalTexture": {
        "index": 14
      },
      "occlusionTexture": {
        "index": 13
      },
      "pbrMetallicRoughness": {
        "baseColorTexture": {
          "index": 12
        },
        "metallicRoughnessTexture": {
          "index": 13
        }
      }
    }
  ],
  "meshes": [
    {
      "name": "defaultMaterial",
      "primitives": [
        {
          "attributes": {
            "NORMAL": 1,
            "POSITION": 0,
            "TANGENT": 2,
            "TEXCOORD_0": 3
          },
          "indices": 4,
          "material": 2,
          "mode": 4
        }
      ]
    },
    {
      "name": "defaultMaterial",
      "primitives": [
        {
          "attributes": {
            "NORMAL": 6,
            "POSITION": 5,
            "TANGENT": 7,
            "TEXCOORD_0": 8
          },
          "indices": 9,
          "material": 4,
          "mode": 4
        }
      ]
    },
    {
      "name": "defaultMaterial",
      "primitives": [
        {
          "attributes": {
            "NORMAL": 11,
            "POSITION": 10,
            "TANGENT": 12,
            "TEXCOORD_0": 13
          },
          "indices": 14,
          "material": 0,
          "mode": 4
        }
      ]
    },
    {
      "name": "defaultMaterial",
      "primitives": [
        {
          "attributes": {
            "NORMAL": 16,
            "POSITION": 15,
            "TANGENT": 17,
            "TEXCOORD_0": 18
          },
          "indices": 19,
          "material": 3,
          "mode": 4
        }
      ]
    },
    {
      "name": "defaultMaterial",
      "primitives": [
        {
          "attributes": {
            "NORMAL": 21,
            "POSITION": 20,
            "TANGENT": 22,
            "TEXCOORD_0": 23
          },
          "indices": 24,
          "material": 3,
          "mode": 4
        }
      ]
    },
    {
      "name": "defaultMaterial",
      "primitives": [
        {
          "attributes": {
            "NORMAL": 26,
            "POSITION": 25,
            "TANGENT": 27,
            "TEXCOORD_0": 28
          },
          "indices": 29,
          "material": 2,
          "mode": 4
        }
      ]
    },
    {
      "name": "defaultMaterial",
      "primitives": [
        {
          "attributes": {
            "NORMAL": 31,
            "POSITION": 30,
            "TANGENT": 32,
            "TEXCOORD_0": 33
          },
          "indices": 34,
          "material": 3,
          "mode": 4
        }
      ]
    },
    {
      "name": "defaultMaterial",
      "primitives": [
        {
          "attributes": {
            "NORMAL": 36,
            "POSITION": 35,
            "TANGENT": 37,
            "TEXCOORD_0": 38
          },
          "indices": 39,
          "material": 2,
          "mode": 4
        }
      ]
    },
    {
      "name": "defaultMaterial",
      "primitives": [
        {
          "attributes": {
            "NORMAL": 41,
            "POSITION": 40,
            "TANGENT": 42,
            "TEXCOORD_0": 43
          },
          "indices": 44,
          "material": 1,
          "mode": 4
        }
      ]
    },
    {
      "name": "defaultMaterial",
      "primitives": [
        {
          "attributes": {
            "NORMAL": 46,
            "POSITION": 45,
            "TANGENT": 47,
            "TEXCOORD_0": 48
          },
          "indices": 49,
          "material": 0,
          "mode": 4
        }
      ]
    }
  ],
  "nodes": [
    {
      "children": [
        1
      ],
      "matrix": [
        0.9090909361839294,
        0.0,
        0.0,
        0.0,
        0.0,
        2.0185873776588746e-16,
        -0.9090909361839294,
        0.0,
        0.0,
        0.9090909361839294,
        2.0185873776588746e-16,
        0.0,
        0.0,
        1.788735826124832e-11,
        -4.917136697812907e-10,
        1.0
      ],
      "name": "Sketchfab_model"
    },
    {
      "children": [
        2,
        4,
        6,
        8,
        10,
        12,
        14,
        16,
        18,
        20
      ],
      "matrix": [
        1.0,
        0.0,
        0.0,
        0.0,
        0.0,
        -4.371139006309477e-08,
        0.999999999999999,
        0.0,
        0.0,
        -0.999999999999999,
        -4.371139006309477e-08,
        0.0,
        0.0,
        0.0,
        0.0,
        1.0
      ],
      "name": "Collada visual scene group"
    },
    {
      "children": [
        3
      ],
      "name": "polySurface4"
    },
    {
      "mesh": 0,
      "name": "defaultMaterial"
    },
    {
      "children": [
        5
      ],
      "name": "polySurface10"
    },
    {
      "mesh": 1,
      "name": "defaultMaterial"
    },
    {
      "children": [
        7
      ],
      "name": "pPlane1"
    },
    {
      "mesh": 2,
      "name": "defaultMaterial"
    },
    {
      "children": [
        9
      ],
      "name": "polySurface6"
    },
    {
      "mesh": 3,
      "name": "defaultMaterial"
    },
    {
      "children": [
        11
      ],
      "name": "pCube7"
    },
    {
      "mesh": 4,
      "name": "defaultMaterial"
    },
    {
      "children": [
        13
      ],
      "name": "pCylinder7"
    },
    {
      "mesh": 5,
      "name": "defaultMaterial"
    },
    {
      "children": [
        15
      ],
      "name": "pCube8"
    },
    {
      "mesh": 6,
      "name": "defaultMaterial"
    },
    {
      "children": [
        17
      ],
      "name": "polySurface3"
    },
    {
      "mesh": 7,
      "name": "defaultMaterial"
    },
    {
      "children": [
        19
      ],
      "name": "pSphere3"
    },
    {
      "mesh": 8,
      "name": "defaultMaterial"
    },
    {
      "children": [
        21
      ],
      "name": "polySurface8"
    },
    {
      "mesh": 9,
      "name": "defaultMaterial"
    }
  ],
  "samplers": [
    {
      "magFilter": 9729,
      "minFilter": 9987,
      "wrapS": 10497,
      "wrapT": 10497
    }
  ],
  "scene": 0,
  "scenes": [
    {
      "name": "Sketchfab_Scene",
      "nodes": [
        0
      ]
    }
  ],
  "textures": [
    {
      "sampler": 0,
      "source": 0
    },
    {
      "sampler": 0,
      "source": 1
    },
    {
      "sampler": 0,
      "source": 2
    },
    {
      "sampler": 0,
      "source": 3
    },
    {
      "sampler": 0,
      "source": 4
    },
    {
      "sampler": 0,
      "source": 5
    },
    {
      "sampler": 0,
      "source": 6
    },
    {
      "sampler": 0,
      "source": 7
    },
    {
      "sampler": 0,
      "source": 8
    },
    {
      "sampler": 0,
      "source": 9
    },
    {
      "sampler": 0,
      "source": 10
    },
    {
      "sampler": 0,
      "source": 11
    },
    {
      "sampler": 0,
      "source": 12
    },
    {
      "sampler": 0,
      "source": 13
    },
    {
      "sampler": 0,
      "source": 14
    }
  ]
}
