{
  "accessors": [
    {
      "bufferView": 2,
      "componentType": 5126,
      "count": 65532,
      "max": [
        0.43338900804519653,
        1.0,
        0.5408589839935303
      ],
      "min": [
        -0.43338900804519653,
        -1.0,
        -0.5408589839935303
      ],
      "type": "VEC3"
    },
    {
      "bufferView": 2,
      "byteOffset": 786384,
      "componentType": 5126,
      "count": 65532,
      "max": [
        0.9999997615814209,
        1.0,
        0.9999832510948181
      ],
      "min": [
        -0.9999997615814209,
        -1.0,
        -0.999986469745636
      ],
      "type": "VEC3"
    },
    {
      "bufferView": 3,
      "componentType": 5126,
      "count": 65532,
      "max": [
        1.0,
        0.9999980926513672,
        0.9999995827674866,
        1.0
      ],
      "min": [
        -1.0,
        -0.9999966621398926,
        -0.9999999403953552,
        -1.0
      ],
      "type": "VEC4"
    },
    {
      "bufferView": 1,
      "componentType": 5126,
      "count": 65532,
      "max": [
        0.9665480256080627,
        0.9814640283584595
      ],
      "min": [
        0.03960900008678436,
        0.023025399073958397
      ],
      "type": "VEC2"
    },
    {
      "bufferView": 0,
      "componentType": 5125,
      "count": 118824,
      "type": "SCALAR"
    },
    {
      "bufferView": 2,
      "byteOffset": 1572768,
      "componentType": 5126,
      "count": 6860,
      "max": [
        0.4325439929962158,
        0.9872840046882629,
        0.5408589839935303
      ],
      "min": [
        -0.43237999081611633,
        -0.34813299775123596,
        -0.5404130220413208
      ],
      "type": "VEC3"
    },
    {
      "bufferView": 2,
      "byteOffset": 1655088,
      "componentType": 5126,
      "count": 6860,
      "max": [
        0.9999417662620544,
        0.9998793601989746,
        1.0
      ],
      "min": [
        -0.9999120235443115,
        -0.9971441030502319,
        -0.9999890923500061
      ],
      "type": "VEC3"
    },
    {
      "bufferView": 3,
      "byteOffset": 1048512,
      "componentType": 5126,
      "count": 6860,
      "max": [
        0.9994733333587646,
        1.0,
        0.9998058676719666,
        1.0
      ],
      "min": [
        -0.9998946189880371,
        -0.9999339580535889,
        -0.9999589323997498,
        -1.0
      ],
      "type": "VEC4"
    },
    {
      "bufferView": 1,
      "byteOffset": 524256,
      "componentType": 5126,
      "count": 6860,
      "max": [
        0.9271399974822998,
        0.8309339880943298
      ],
      "min": [
        0.04010479897260666,
        0.03689039871096611
      ],
      "type": "VEC2"
    },
    {
      "bufferView": 0,
      "byteOffset": 475296,
      "componentType": 5125,
      "count": 13974,
      "type": "SCALAR"
    }
  ],
  "asset": {
    "extras": {
      "author": "Heliona (https://sketchfab.com/Heliona)",
      "license": "CC-BY-4.0 (http://creativecommons.org/licenses/by/4.0/)",
      "source": "https://sketchfab.com/3d-models/dining-chair-3503f197fe8f4e2cb64d10bf44134930",
      "title": "Dining Chair"
    },
    "generator": "Sketchfab-12.65.0",
    "version": "2.0"
  },
  "bufferViews": [
    {
      "buffer": 0,
      "byteLength": 531192,
      "name": "floatBufferViews",
      "target": 34963
    },
    {
      "buffer": 0,
      "byteLength": 579136,
      "byteOffset": 531192,
      "byteStride": 8,
      "name": "floatBufferViews",
      "target": 34962
    },
    {
      "buffer": 0,
      "byteLength": 1737408,
      "byteOffset": 1110328,
      "byteStride": 12,
      "name": "floatBufferViews",
      "target": 34962
    },
    {
      "buffer": 0,
      "byteLength": 1158272,
      "byteOffset": 2847736,
      "byteStride": 16,
      "name": "floatBufferViews",
      "target": 34962
    }
  ],
  "buffers": [
    {
      "byteLength": 4006008,
      "uri": "scene.bin"
    }
  ],
  "images": [
    {
      "uri": "textures/modern_chair_baseColor.jpeg"
    },
    {
      "uri": "textures/modern_chair_metallicRoughness.png"
    },
    {
      "uri": "textures/modern_chair_normal.png"
    }
  ],
  "materials": [
    {
      "doubleSided": true,
      "name": "modern_chair",
      "normalTexture": {
        "index": 2
      },
      "occlusionTexture": {
        "index": 1
      },
      "pbrMetallicRoughness": {
        "baseColorTexture": {
          "index": 0
        },
        "metallicRoughnessTexture": {
          "index": 1
        }
      }
    }
  ],
  "meshes": [
    {
      "name": "defaultMaterial",
      "primitives": [
        {
          "attributes": {
            "NORMAL": 1,
            "POSITION": 0,
            "TANGENT": 2,
            "TEXCOORD_0": 3
          },
          "indices": 4,
          "material": 0,
          "mode": 4
        }
      ]
    },
    {
      "name": "defaultMaterial",
      "primitives": [
        {
          "attributes": {
            "NORMAL": 6,
            "POSITION": 5,
            "TANGENT": 7,
            "TEXCOORD_0": 8
          },
          "indices": 9,
          "material": 0,
          "mode": 4
        }
      ]
    }
  ],
  "nodes": [
    {
      "children": [
        1
      ],
      "matrix": [
        1.0,
        0.0,
        0.0,
        0.0,
        0.0,
        2.220446049250313e-16,
        -1.0,
        0.0,
        0.0,
        1.0,
        2.220446049250313e-16,
        0.0,
        0.0,
        0.0,
        0.0,
        1.0
      ],
      "name": "Sketchfab_model"
    },
    {
      "children": [
        2
      ],
      "matrix": [
        1.0,
        0.0,
        0.0,
        0.0,
        0.0,
        -4.371139006309477e-08,
        0.999999999999999,
        0.0,
        0.0,
        -0.999999999999999,
        -4.371139006309477e-08,
        0.0,
        0.0,
        0.0,
        0.0,
        1.0
      ],
      "name": "Collada visual scene group"
    },
    {
      "children": [
        3,
        4
      ],
      "name": "chair"
    },
    {
      "mesh": 0,
      "name": "defaultMaterial"
    },
    {
      "mesh": 1,
      "name": "defaultMaterial"
    }
  ],
  "samplers": [
    {
      "magFilter": 9729,
      "minFilter": 9987,
      "wrapS": 10497,
      "wrapT": 10497
    }
  ],
  "scene": 0,
  "scenes": [
    {
      "name": "Sketchfab_Scene",
      "nodes": [
        0
      ]
    }
  ],
  "textures": [
    {
      "sampler": 0,
      "source": 0
    },
    {
      "sampler": 0,
      "source": 1
    },
    {
      "sampler": 0,
      "source": 2
    }
  ]
}
