{
  "accessors": [
    {
      "bufferView": 2,
      "componentType": 5126,
      "count": 2711,
      "max": [
        0.19367200136184692,
        0.22822950780391693,
        0.8405455946922302
      ],
      "min": [
        -0.19367200136184692,
        -0.4476984739303589,
        0.0
      ],
      "type": "VEC3"
    },
    {
      "bufferView": 2,
      "byteOffset": 32532,
      "componentType": 5126,
      "count": 2711,
      "max": [
        1.0,
        1.0,
        1.0
      ],
      "min": [
        -1.0,
        -1.0,
        -1.0
      ],
      "type": "VEC3"
    },
    {
      "bufferView": 1,
      "componentType": 5126,
      "count": 2711,
      "max": [
        1.0000412464141846,
        1.0000288486480713
      ],
      "min": [
        -3.7877773138461635e-05,
        -2.506058990547899e-06
      ],
      "type": "VEC2"
    },
    {
      "bufferView": 0,
      "componentType": 5125,
      "count": 6774,
      "type": "SCALAR"
    },
    {
      "bufferView": 2,
      "byteOffset": 65064,
      "componentType": 5126,
      "count": 62,
      "max": [
        0.1920233964920044,
        0.2265835553407669,
        0.0
      ],
      "min": [
        -0.1920233964920044,
        -0.2980633080005646,
        0.0
      ],
      "type": "VEC3"
    },
    {
      "bufferView": 2,
      "byteOffset": 65808,
      "componentType": 5126,
      "count": 62,
      "max": [
        0.13449186086654663,
        0.13497932255268097,
        -0.9901956915855408
      ],
      "min": [
        -0.13449206948280334,
        -0.12002395838499069,
        -1.0
      ],
      "type": "VEC3"
    },
    {
      "bufferView": 1,
      "byteOffset": 21688,
      "componentType": 5126,
      "count": 62,
      "max": [
        0.9960577487945557,
        0.9969998598098755
      ],
      "min": [
        0.003942272160202265,
        0.0028261132538318634
      ],
      "type": "VEC2"
    },
    {
      "bufferView": 0,
      "byteOffset": 27096,
      "componentType": 5125,
      "count": 264,
      "type": "SCALAR"
    },
    {
      "bufferView": 2,
      "byteOffset": 66552,
      "componentType": 5126,
      "count": 907,
      "max": [
        0.023647062480449677,
        0.17438580095767975,
        0.8443657159805298
      ],
      "min": [
        -0.023646987974643707,
        0.12709175050258636,
        0.8387252688407898
      ],
      "type": "VEC3"
    },
    {
      "bufferView": 2,
      "byteOffset": 77436,
      "componentType": 5126,
      "count": 907,
      "max": [
        1.0,
        1.0,
        1.0
      ],
      "min": [
        -1.0,
        -1.0,
        0.0
      ],
      "type": "VEC3"
    },
    {
      "bufferView": 1,
      "byteOffset": 22184,
      "componentType": 5126,
      "count": 907,
      "max": [
        1.0,
        1.0
      ],
      "min": [
        -1.3969838619232178e-09,
        0.0
      ],
      "type": "VEC2"
    },
    {
      "bufferView": 0,
      "byteOffset": 28152,
      "componentType": 5125,
      "count": 3852,
      "type": "SCALAR"
    }
  ],
  "asset": {
    "extras": {
      "author": "trendforward (https://sketchfab.com/trendforward)",
      "license": "CC-BY-NC-ND-4.0 (http://creativecommons.org/licenses/by-nc-nd/4.0/)",
      "source": "https://sketchfab.com/3d-models/toilet-vaa-772662wh-c1cfc1ba76494f80a093570464c469fa",
      "title": "Toilet VAA-772662WH"
    },
    "generator": "Sketchfab-12.67.0",
    "version": "2.0"
  },
  "bufferViews": [
    {
      "buffer": 0,
      "byteLength": 43560,
      "name": "floatBufferViews",
      "target": 34963
    },
    {
      "buffer": 0,
      "byteLength": 29440,
      "byteOffset": 43560,
      "byteStride": 8,
      "name": "floatBufferViews",
      "target": 34962
    },
    {
      "buffer": 0,
      "byteLength": 88320,
      "byteOffset": 73000,
      "byteStride": 12,
      "name": "floatBufferViews",
      "target": 34962
    }
  ],
  "buffers": [
    {
      "byteLength": 161320,
      "uri": "scene.bin"
    }
  ],
  "materials": [
    {
      "doubleSided": true,
      "name": "White_ceramic",
      "pbrMetallicRoughness": {
        "baseColorFactor": [
          0.8,
          0.8,
          0.8,
          1.0
        ],
        "metallicFactor": 0.0,
        "roughnessFactor": 0.15000000000000002
      }
    },
    {
      "doubleSided": true,
      "name": "Matt_Black",
      "pbrMetallicRoughness": {
        "baseColorFactor": [
          0.0,
          0.0,
          0.0,
          1.0
        ],
        "metallicFactor": 0.0
      }
    },
    {
      "doubleSided": true,
      "name": "Chrome",
      "pbrMetallicRoughness": {
        "baseColorFactor": [
          0.8,
          0.8,
          0.8,
          1.0
        ],
        "roughnessFactor": 0.0
      }
    }
  ],
  "meshes": [
    {
      "name": "Vaal VAA-772662WH_White ceramic_0",
      "primitives": [
        {
          "attributes": {
            "NORMAL": 1,
            "POSITION": 0,
            "TEXCOORD_0": 2
          },
          "indices": 3,
          "material": 0,
          "mode": 4
        }
      ]
    },
    {
      "name": "Vaal VAA-772662WH_Matt_Black_0",
      "primitives": [
        {
          "attributes": {
            "NORMAL": 5,
            "POSITION": 4,
            "TEXCOORD_0": 6
          },
          "indices": 7,
          "material": 1,
          "mode": 4
        }
      ]
    },
    {
      "name": "Vaal VAA-772662WH_Chrome_0",
      "primitives": [
        {
          "attributes": {
            "NORMAL": 9,
            "POSITION": 8,
            "TEXCOORD_0": 10
          },
          "indices": 11,
          "material": 2,
          "mode": 4
        }
      ]
    }
  ],
  "nodes": [
    {
      "children": [
        1
      ],
      "matrix": [
        1.0,
        0.0,
        0.0,
        0.0,
        0.0,
        2.220446049250313e-16,
        -1.0,
        0.0,
        0.0,
        1.0,
        2.220446049250313e-16,
        0.0,
        0.0,
        0.0,
        0.0,
        1.0
      ],
      "name": "Sketchfab_model"
    },
    {
      "children": [
        2
      ],
      "matrix": [
        1.0,
        0.0,
        0.0,
        0.0,
        0.0,
        0.0,
        1.0,
        0.0,
        0.0,
        -1.0,
        0.0,
        0.0,
        0.0,
        0.0,
        0.0,
        1.0
      ],
      "name": "58c26ec3a4fe4f4ba13a510fb2ccdd89.fbx"
    },
    {
      "children": [
        3
      ],
      "name": "RootNode"
    },
    {
      "children": [
        4,
        5,
        6
      ],
      "matrix": [
        100.0,
        0.0,
        0.0,
        0.0,
        0.0,
        -1.629206793918314e-05,
        -99.99999999999868,
        0.0,
        0.0,
        99.99999999999868,
        -1.629206793918314e-05,
        0.0,
        0.0,
        0.0,
        0.0,
        1.0
      ],
      "name": "Vaal VAA-772662WH"
    },
    {
      "mesh": 0,
      "name": "Vaal VAA-772662WH_White ceramic_0"
    },
    {
      "mesh": 1,
      "name": "Vaal VAA-772662WH_Matt_Black_0"
    },
    {
      "mesh": 2,
      "name": "Vaal VAA-772662WH_Chrome_0"
    }
  ],
  "scene": 0,
  "scenes": [
    {
      "name": "Sketchfab_Scene",
      "nodes": [
        0
      ]
    }
  ]
}
