<svg xmlns="http://www.w3.org/2000/svg" width="1200" height="900" viewBox="0 0 1200 900" role="img" aria-label="Top-view floor plan">
  <defs>
    <pattern id="wood" width="48" height="48" patternUnits="userSpaceOnUse">
      <rect width="48" height="48" fill="#8c6f4f"/>
      <rect width="24" height="48" fill="#967656"/>
      <rect x="1" y="1" width="22" height="46" fill="none" stroke="#7a5e42" stroke-opacity="0.5"/>
      <rect x="25" y="1" width="22" height="46" fill="none" stroke="#7a5e42" stroke-opacity="0.45"/>
    </pattern>
    <filter id="shadow" x="-20%" y="-20%" width="140%" height="140%">
      <feDropShadow dx="0" dy="2" stdDeviation="3" flood-color="#000" flood-opacity="0.24"/>
    </filter>
  </defs>

  <rect width="1200" height="900" fill="url(#wood)"/>

  <g fill="#f2f2f2" stroke="#262626" stroke-width="18" stroke-linejoin="round">
    <rect x="36" y="36" width="1128" height="828"/>
    <rect x="36" y="36" width="448" height="340"/>
    <rect x="484" y="36" width="340" height="340"/>
    <rect x="824" y="36" width="340" height="340"/>
    <rect x="36" y="376" width="788" height="488"/>
    <rect x="824" y="376" width="340" height="488"/>
  </g>

  <g fill="none" stroke="#b08a5b" stroke-width="12" stroke-linecap="round">
    <path d="M484 208a106 106 0 0 0 -106 -106"/>
    <path d="M824 204a100 100 0 0 0 -100 -100"/>
    <path d="M824 548a88 88 0 0 1 88 -88"/>
  </g>

  <g filter="url(#shadow)">
    <rect x="112" y="108" width="196" height="96" rx="10" fill="#cfd6de" stroke="#4b5563" stroke-width="8"/>
    <rect x="120" y="236" width="180" height="108" rx="10" fill="#d9dee4" stroke="#4b5563" stroke-width="8"/>

    <rect x="536" y="96" width="236" height="72" rx="12" fill="#d8dde3" stroke="#4b5563" stroke-width="8"/>
    <circle cx="560" cy="300" r="38" fill="#c9d1db" stroke="#4b5563" stroke-width="8"/>
    <circle cx="636" cy="300" r="38" fill="#c9d1db" stroke="#4b5563" stroke-width="8"/>

    <rect x="878" y="96" width="224" height="236" rx="16" fill="#eceff3" stroke="#4b5563" stroke-width="8"/>
    <rect x="924" y="122" width="130" height="60" rx="8" fill="#dde3ea" stroke="#4b5563" stroke-width="6"/>

    <rect x="110" y="448" width="286" height="124" rx="18" fill="#d6dde6" stroke="#4b5563" stroke-width="8"/>
    <rect x="458" y="456" width="286" height="124" rx="18" fill="#d6dde6" stroke="#4b5563" stroke-width="8"/>
    <rect x="302" y="618" width="286" height="124" rx="18" fill="#d6dde6" stroke="#4b5563" stroke-width="8"/>

    <circle cx="994" cy="514" r="86" fill="#d7dde5" stroke="#4b5563" stroke-width="8"/>
    <rect x="932" y="650" width="126" height="164" rx="16" fill="#dde3ea" stroke="#4b5563" stroke-width="8"/>
  </g>
</svg>
