{
  "accessors": [
    {
      "bufferView": 2,
      "componentType": 5126,
      "count": 56,
      "max": [
        0.8105001449584961,
        0.21373553574085236,
        0.013923108577728271
      ],
      "min": [
        -0.8852372169494629,
        -0.269802451133728,
        -0.6350032687187195
      ],
      "type": "VEC3"
    },
    {
      "bufferView": 2,
      "byteOffset": 672,
      "componentType": 5126,
      "count": 56,
      "max": [
        1.0,
        1.0,
        1.0
      ],
      "min": [
        -1.0,
        -1.0,
        -1.0
      ],
      "type": "VEC3"
    },
    {
      "bufferView": 3,
      "componentType": 5126,
      "count": 56,
      "max": [
        1.0,
        1.0,
        4.419556773882505e-07,
        1.0
      ],
      "min": [
        -1.0,
        -1.0,
        -1.0,
        -1.0
      ],
      "type": "VEC4"
    },
    {
      "bufferView": 1,
      "componentType": 5126,
      "count": 56,
      "max": [
        0.8401227593421936,
        0.9681370258331299
      ],
      "min": [
        0.10948409140110016,
        0.10617177188396454
      ],
      "type": "VEC2"
    },
    {
      "bufferView": 0,
      "componentType": 5125,
      "count": 84,
      "type": "SCALAR"
    },
    {
      "bufferView": 2,
      "byteOffset": 1344,
      "componentType": 5126,
      "count": 56,
      "max": [
        0.4250449538230896,
        0.2408936470746994,
        0.16100072860717773
      ],
      "min": [
        -0.4250449538230896,
        -0.2408936470746994,
        -0.16100072860717773
      ],
      "type": "VEC3"
    },
    {
      "bufferView": 2,
      "byteOffset": 2016,
      "componentType": 5126,
      "count": 56,
      "max": [
        1.0,
        1.0,
        1.0
      ],
      "min": [
        -1.0,
        -1.0,
        -1.0
      ],
      "type": "VEC3"
    },
    {
      "bufferView": 3,
      "byteOffset": 896,
      "componentType": 5126,
      "count": 56,
      "max": [
        1.1396055924706161e-05,
        1.0,
        1.0,
        1.0
      ],
      "min": [
        -7.934151540212042e-07,
        -1.0,
        -1.0,
        1.0
      ],
      "type": "VEC4"
    },
    {
      "bufferView": 1,
      "byteOffset": 448,
      "componentType": 5126,
      "count": 56,
      "max": [
        0.9496174454689026,
        0.9681357145309448
      ],
      "min": [
        0.0037853268440812826,
        0.10617594420909882
      ],
      "type": "VEC2"
    },
    {
      "bufferView": 0,
      "byteOffset": 336,
      "componentType": 5125,
      "count": 84,
      "type": "SCALAR"
    },
    {
      "bufferView": 2,
      "byteOffset": 2688,
      "componentType": 5126,
      "count": 24,
      "max": [
        0.0,
        0.0,
        0.33177250623703003
      ],
      "min": [
        -0.44896629452705383,
        -0.01600000262260437,
        -0.3149999976158142
      ],
      "type": "VEC3"
    },
    {
      "bufferView": 2,
      "byteOffset": 2976,
      "componentType": 5126,
      "count": 24,
      "max": [
        1.0,
        1.0,
        1.0
      ],
      "min": [
        -1.0,
        -1.0,
        -1.0
      ],
      "type": "VEC3"
    },
    {
      "bufferView": 3,
      "byteOffset": 1792,
      "componentType": 5126,
      "count": 24,
      "max": [
        1.0,
        1.0,
        4.6023737354516925e-07,
        1.0
      ],
      "min": [
        0.0,
        0.0,
        0.0,
        1.0
      ],
      "type": "VEC4"
    },
    {
      "bufferView": 1,
      "byteOffset": 896,
      "componentType": 5126,
      "count": 24,
      "max": [
        0.324940025806427,
        0.4964917302131653
      ],
      "min": [
        0.14244040846824646,
        0.10617594420909882
      ],
      "type": "VEC2"
    },
    {
      "bufferView": 0,
      "byteOffset": 672,
      "componentType": 5125,
      "count": 36,
      "type": "SCALAR"
    },
    {
      "bufferView": 2,
      "byteOffset": 3264,
      "componentType": 5126,
      "count": 24,
      "max": [
        0.3440840244293213,
        0.1980559378862381,
        -0.29700180888175964
      ],
      "min": [
        -0.8692373037338257,
        -0.26947203278541565,
        -0.3130018413066864
      ],
      "type": "VEC3"
    },
    {
      "bufferView": 2,
      "byteOffset": 3552,
      "componentType": 5126,
      "count": 24,
      "max": [
        1.0252501958518678e-08,
        1.274889598334994e-07,
        1.0
      ],
      "min": [
        -2.3575807972520124e-07,
        -1.0,
        -1.0
      ],
      "type": "VEC3"
    },
    {
      "bufferView": 3,
      "byteOffset": 2176,
      "componentType": 5126,
      "count": 24,
      "max": [
        1.0,
        1.6882485169844585e-06,
        1.089091142603138e-06,
        1.0
      ],
      "min": [
        -1.0,
        -2.9135540557945205e-07,
        -1.2628636341105448e-06,
        1.0
      ],
      "type": "VEC4"
    },
    {
      "bufferView": 1,
      "byteOffset": 1088,
      "componentType": 5126,
      "count": 24,
      "max": [
        0.35551610589027405,
        0.9681383371353149
      ],
      "min": [
        0.004232659935951233,
        0.6937971115112305
      ],
      "type": "VEC2"
    },
    {
      "bufferView": 0,
      "byteOffset": 816,
      "componentType": 5125,
      "count": 36,
      "type": "SCALAR"
    },
    {
      "bufferView": 2,
      "byteOffset": 3840,
      "componentType": 5126,
      "count": 56,
      "max": [
        0.4250449538230896,
        0.2408936470746994,
        0.16100072860717773
      ],
      "min": [
        -0.4250449538230896,
        -0.2408936470746994,
        -0.16100072860717773
      ],
      "type": "VEC3"
    },
    {
      "bufferView": 2,
      "byteOffset": 4512,
      "componentType": 5126,
      "count": 56,
      "max": [
        1.0,
        1.0,
        1.0
      ],
      "min": [
        -1.0,
        -1.0,
        -1.0
      ],
      "type": "VEC3"
    },
    {
      "bufferView": 3,
      "byteOffset": 2560,
      "componentType": 5126,
      "count": 56,
      "max": [
        1.1396055924706161e-05,
        1.0,
        1.0,
        1.0
      ],
      "min": [
        -7.934151540212042e-07,
        -1.0,
        -1.0,
        1.0
      ],
      "type": "VEC4"
    },
    {
      "bufferView": 1,
      "byteOffset": 1280,
      "componentType": 5126,
      "count": 56,
      "max": [
        0.9496174454689026,
        0.9681357145309448
      ],
      "min": [
        0.0037853268440812826,
        0.10617594420909882
      ],
      "type": "VEC2"
    },
    {
      "bufferView": 0,
      "byteOffset": 960,
      "componentType": 5125,
      "count": 84,
      "type": "SCALAR"
    },
    {
      "bufferView": 2,
      "byteOffset": 5184,
      "componentType": 5126,
      "count": 1467,
      "max": [
        0.02629220113158226,
        0.026292210444808006,
        0.16909091174602509
      ],
      "min": [
        -0.02629220113158226,
        -0.1324082911014557,
        -1.7821788787841797e-05
      ],
      "type": "VEC3"
    },
    {
      "bufferView": 2,
      "byteOffset": 22788,
      "componentType": 5126,
      "count": 1467,
      "max": [
        1.0,
        1.0,
        1.0
      ],
      "min": [
        -1.0,
        -0.9999998211860657,
        -1.0
      ],
      "type": "VEC3"
    },
    {
      "bufferView": 3,
      "byteOffset": 3456,
      "componentType": 5126,
      "count": 1467,
      "max": [
        1.0,
        1.0,
        0.9913306832313538,
        1.0
      ],
      "min": [
        -1.0,
        -0.9999999403953552,
        -0.9999990463256836,
        -1.0
      ],
      "type": "VEC4"
    },
    {
      "bufferView": 1,
      "byteOffset": 1728,
      "componentType": 5126,
      "count": 1467,
      "max": [
        0.9366004467010498,
        0.718610405921936
      ],
      "min": [
        0.7973495125770569,
        0.4914156198501587
      ],
      "type": "VEC2"
    },
    {
      "bufferView": 0,
      "byteOffset": 1296,
      "componentType": 5125,
      "count": 6030,
      "type": "SCALAR"
    },
    {
      "bufferView": 2,
      "byteOffset": 40392,
      "componentType": 5126,
      "count": 825,
      "max": [
        0.05314774066209793,
        0.03466660529375076,
        0.1400919407606125
      ],
      "min": [
        -0.034666430205106735,
        -0.03466638922691345,
        -2.384185791015625e-07
      ],
      "type": "VEC3"
    },
    {
      "bufferView": 2,
      "byteOffset": 50292,
      "componentType": 5126,
      "count": 825,
      "max": [
        1.0,
        1.0,
        1.0
      ],
      "min": [
        -1.0,
        -1.0,
        -1.0
      ],
      "type": "VEC3"
    },
    {
      "bufferView": 3,
      "byteOffset": 26928,
      "componentType": 5126,
      "count": 825,
      "max": [
        1.0,
        1.0,
        1.0,
        1.0
      ],
      "min": [
        -1.0,
        -1.0,
        -1.0,
        1.0
      ],
      "type": "VEC4"
    },
    {
      "bufferView": 1,
      "byteOffset": 13464,
      "componentType": 5126,
      "count": 825,
      "max": [
        0.995815098285675,
        0.6653919816017151
      ],
      "min": [
        0.8932358622550964,
        0.5276994705200195
      ],
      "type": "VEC2"
    },
    {
      "bufferView": 0,
      "byteOffset": 25416,
      "componentType": 5125,
      "count": 3408,
      "type": "SCALAR"
    },
    {
      "bufferView": 2,
      "byteOffset": 60192,
      "componentType": 5126,
      "count": 631,
      "max": [
        0.813771665096283,
        0.21373553574085236,
        0.02500000037252903
      ],
      "min": [
        -0.8885087370872498,
        -0.2858024537563324,
        -0.10321737825870514
      ],
      "type": "VEC3"
    },
    {
      "bufferView": 2,
      "byteOffset": 67764,
      "componentType": 5126,
      "count": 631,
      "max": [
        1.0,
        1.0,
        1.0
      ],
      "min": [
        -1.0,
        -1.0,
        -1.0
      ],
      "type": "VEC3"
    },
    {
      "bufferView": 3,
      "byteOffset": 40128,
      "componentType": 5126,
      "count": 631,
      "max": [
        1.0,
        1.0,
        0.9999707341194153,
        1.0
      ],
      "min": [
        -1.0,
        -1.0,
        -1.0,
        1.0
      ],
      "type": "VEC4"
    },
    {
      "bufferView": 1,
      "byteOffset": 20064,
      "componentType": 5126,
      "count": 631,
      "max": [
        0.995388388633728,
        0.9962320327758789
      ],
      "min": [
        0.0037866083439439535,
        0.01930961012840271
      ],
      "type": "VEC2"
    },
    {
      "bufferView": 0,
      "byteOffset": 39048,
      "componentType": 5125,
      "count": 2880,
      "type": "SCALAR"
    },
    {
      "bufferView": 2,
      "byteOffset": 75336,
      "componentType": 5126,
      "count": 60,
      "max": [
        0.34329497814178467,
        0.002493351697921753,
        0.002176988869905472
      ],
      "min": [
        -0.34329497814178467,
        -0.023515164852142334,
        -0.013927847146987915
      ],
      "type": "VEC3"
    },
    {
      "bufferView": 2,
      "byteOffset": 76056,
      "componentType": 5126,
      "count": 60,
      "max": [
        1.0,
        1.0,
        1.0
      ],
      "min": [
        -1.0,
        -1.0,
        -1.0
      ],
      "type": "VEC3"
    },
    {
      "bufferView": 3,
      "byteOffset": 50224,
      "componentType": 5126,
      "count": 60,
      "max": [
        1.0,
        1.0,
        1.0,
        1.0
      ],
      "min": [
        -6.532208317366894e-06,
        -1.0,
        -1.0,
        1.0
      ],
      "type": "VEC4"
    },
    {
      "bufferView": 1,
      "byteOffset": 25112,
      "componentType": 5126,
      "count": 60,
      "max": [
        0.3249383270740509,
        0.09222816675901413
      ],
      "min": [
        0.12564972043037415,
        0.07256899774074554
      ],
      "type": "VEC2"
    },
    {
      "bufferView": 0,
      "byteOffset": 50568,
      "componentType": 5125,
      "count": 96,
      "type": "SCALAR"
    },
    {
      "bufferView": 2,
      "byteOffset": 76776,
      "componentType": 5126,
      "count": 12,
      "max": [
        0.007999986410140991,
        0.23376896977424622,
        0.3194867670536041
      ],
      "min": [
        -0.007999986410140991,
        -0.23376896977424622,
        -0.29999837279319763
      ],
      "type": "VEC3"
    },
    {
      "bufferView": 2,
      "byteOffset": 76920,
      "componentType": 5126,
      "count": 12,
      "max": [
        1.0,
        0.0,
        0.0
      ],
      "min": [
        -1.0,
        -1.0,
        0.0
      ],
      "type": "VEC3"
    },
    {
      "bufferView": 3,
      "byteOffset": 51184,
      "componentType": 5126,
      "count": 12,
      "max": [
        7.074626182657084e-07,
        0.0,
        1.0,
        1.0
      ],
      "min": [
        -3.858355301922245e-11,
        -1.0,
        0.0,
        1.0
      ],
      "type": "VEC4"
    },
    {
      "bufferView": 1,
      "byteOffset": 25592,
      "componentType": 5126,
      "count": 12,
      "max": [
        0.3249383270740509,
        0.36764395236968994
      ],
      "min": [
        0.003786548739299178,
        0.09652237594127655
      ],
      "type": "VEC2"
    },
    {
      "bufferView": 0,
      "byteOffset": 50952,
      "componentType": 5125,
      "count": 18,
      "type": "SCALAR"
    },
    {
      "bufferView": 2,
      "byteOffset": 77064,
      "componentType": 5126,
      "count": 12,
      "max": [
        0.007999986410140991,
        0.23376896977424622,
        0.3194867670536041
      ],
      "min": [
        -0.007999986410140991,
        -0.23376896977424622,
        -0.29999837279319763
      ],
      "type": "VEC3"
    },
    {
      "bufferView": 2,
      "byteOffset": 77208,
      "componentType": 5126,
      "count": 12,
      "max": [
        1.0,
        0.0,
        0.0
      ],
      "min": [
        -1.0,
        -1.0,
        0.0
      ],
      "type": "VEC3"
    },
    {
      "bufferView": 3,
      "byteOffset": 51376,
      "componentType": 5126,
      "count": 12,
      "max": [
        7.074626182657084e-07,
        0.0,
        1.0,
        1.0
      ],
      "min": [
        -3.858355301922245e-11,
        -1.0,
        0.0,
        1.0
      ],
      "type": "VEC4"
    },
    {
      "bufferView": 1,
      "byteOffset": 25688,
      "componentType": 5126,
      "count": 12,
      "max": [
        0.3249383270740509,
        0.36764395236968994
      ],
      "min": [
        0.003786548739299178,
        0.09652237594127655
      ],
      "type": "VEC2"
    },
    {
      "bufferView": 0,
      "byteOffset": 51024,
      "componentType": 5125,
      "count": 18,
      "type": "SCALAR"
    },
    {
      "bufferView": 2,
      "byteOffset": 77352,
      "componentType": 5126,
      "count": 60,
      "max": [
        0.34329497814178467,
        0.002493351697921753,
        0.002176988869905472
      ],
      "min": [
        -0.34329497814178467,
        -0.023515164852142334,
        -0.013927847146987915
      ],
      "type": "VEC3"
    },
    {
      "bufferView": 2,
      "byteOffset": 78072,
      "componentType": 5126,
      "count": 60,
      "max": [
        1.0,
        1.0,
        1.0
      ],
      "min": [
        -1.0,
        -1.0,
        -1.0
      ],
      "type": "VEC3"
    },
    {
      "bufferView": 3,
      "byteOffset": 51568,
      "componentType": 5126,
      "count": 60,
      "max": [
        1.0,
        1.0,
        1.0,
        1.0
      ],
      "min": [
        -6.532208317366894e-06,
        -1.0,
        -1.0,
        1.0
      ],
      "type": "VEC4"
    },
    {
      "bufferView": 1,
      "byteOffset": 25784,
      "componentType": 5126,
      "count": 60,
      "max": [
        0.3249383270740509,
        0.09222816675901413
      ],
      "min": [
        0.12564972043037415,
        0.07256899774074554
      ],
      "type": "VEC2"
    },
    {
      "bufferView": 0,
      "byteOffset": 51096,
      "componentType": 5125,
      "count": 96,
      "type": "SCALAR"
    },
    {
      "bufferView": 2,
      "byteOffset": 78792,
      "componentType": 5126,
      "count": 32,
      "max": [
        0.8511402010917664,
        6.127134355438102e-08,
        0.2967267632484436
      ],
      "min": [
        -0.8511402010917664,
        -0.0019017283339053392,
        -0.2967270612716675
      ],
      "type": "VEC3"
    },
    {
      "bufferView": 2,
      "byteOffset": 79176,
      "componentType": 5126,
      "count": 32,
      "max": [
        1.0,
        1.0,
        1.0
      ],
      "min": [
        -1.0,
        -1.0,
        -1.0
      ],
      "type": "VEC3"
    },
    {
      "bufferView": 3,
      "byteOffset": 52528,
      "componentType": 5126,
      "count": 32,
      "max": [
        1.0,
        1.0,
        1.0,
        1.0
      ],
      "min": [
        -1.0,
        0.0,
        -1.0,
        -1.0
      ],
      "type": "VEC4"
    },
    {
      "bufferView": 1,
      "byteOffset": 26264,
      "componentType": 5126,
      "count": 32,
      "max": [
        0.995815098285675,
        0.9681357145309448
      ],
      "min": [
        0.7574712634086609,
        0.4032870829105377
      ],
      "type": "VEC2"
    },
    {
      "bufferView": 0,
      "byteOffset": 51480,
      "componentType": 5125,
      "count": 48,
      "type": "SCALAR"
    }
  ],
  "asset": {
    "extras": {
      "author": "patrakeevasveta (https://sketchfab.com/patrakeevasveta)",
      "license": "CC-BY-4.0 (http://creativecommons.org/licenses/by/4.0/)",
      "source": "https://sketchfab.com/3d-models/bathroom-closet-335e648aa8cc4605867f9874ff409688",
      "title": "Bathroom closet"
    },
    "generator": "Sketchfab-16.16.0",
    "version": "2.0"
  },
  "bufferViews": [
    {
      "buffer": 0,
      "byteLength": 51672,
      "name": "floatBufferViews",
      "target": 34963
    },
    {
      "buffer": 0,
      "byteLength": 26520,
      "byteOffset": 51672,
      "byteStride": 8,
      "name": "floatBufferViews",
      "target": 34962
    },
    {
      "buffer": 0,
      "byteLength": 79560,
      "byteOffset": 78192,
      "byteStride": 12,
      "name": "floatBufferViews",
      "target": 34962
    },
    {
      "buffer": 0,
      "byteLength": 53040,
      "byteOffset": 157752,
      "byteStride": 16,
      "name": "floatBufferViews",
      "target": 34962
    }
  ],
  "buffers": [
    {
      "byteLength": 210792,
      "uri": "scene.bin"
    }
  ],
  "extensionsUsed": [
    "KHR_materials_emissive_strength"
  ],
  "images": [
    {
      "uri": "textures/Bathroom_closet_baseColor.png"
    },
    {
      "uri": "textures/Bathroom_closet_metallicRoughness.png"
    },
    {
      "uri": "textures/Bathroom_closet_emissive.png"
    },
    {
      "uri": "textures/Bathroom_closet_normal.png"
    }
  ],
  "materials": [
    {
      "doubleSided": true,
      "emissiveFactor": [
        1.0,
        1.0,
        1.0
      ],
      "emissiveTexture": {
        "index": 2
      },
      "extensions": {
        "KHR_materials_emissive_strength": {
          "emissiveStrength": 6.019065962867696
        }
      },
      "name": "Bathroom_closet",
      "normalTexture": {
        "index": 3
      },
      "pbrMetallicRoughness": {
        "baseColorTexture": {
          "index": 0
        },
        "metallicRoughnessTexture": {
          "index": 1
        }
      }
    }
  ],
  "meshes": [
    {
      "name": "bathroom table_Bathroom closet_0",
      "primitives": [
        {
          "attributes": {
            "NORMAL": 1,
            "POSITION": 0,
            "TANGENT": 2,
            "TEXCOORD_0": 3
          },
          "indices": 4,
          "material": 0,
          "mode": 4
        }
      ]
    },
    {
      "name": "bathroom table.001_Bathroom closet_0",
      "primitives": [
        {
          "attributes": {
            "NORMAL": 6,
            "POSITION": 5,
            "TANGENT": 7,
            "TEXCOORD_0": 8
          },
          "indices": 9,
          "material": 0,
          "mode": 4
        }
      ]
    },
    {
      "name": "bathroom table.002_Bathroom closet_0",
      "primitives": [
        {
          "attributes": {
            "NORMAL": 11,
            "POSITION": 10,
            "TANGENT": 12,
            "TEXCOORD_0": 13
          },
          "indices": 14,
          "material": 0,
          "mode": 4
        }
      ]
    },
    {
      "name": "bathroom table.003_Bathroom closet_0",
      "primitives": [
        {
          "attributes": {
            "NORMAL": 16,
            "POSITION": 15,
            "TANGENT": 17,
            "TEXCOORD_0": 18
          },
          "indices": 19,
          "material": 0,
          "mode": 4
        }
      ]
    },
    {
      "name": "bathroom table.005_Bathroom closet_0",
      "primitives": [
        {
          "attributes": {
            "NORMAL": 21,
            "POSITION": 20,
            "TANGENT": 22,
            "TEXCOORD_0": 23
          },
          "indices": 24,
          "material": 0,
          "mode": 4
        }
      ]
    },
    {
      "name": "sink_Bathroom closet_0",
      "primitives": [
        {
          "attributes": {
            "NORMAL": 26,
            "POSITION": 25,
            "TANGENT": 27,
            "TEXCOORD_0": 28
          },
          "indices": 29,
          "material": 0,
          "mode": 4
        }
      ]
    },
    {
      "name": "soap_Bathroom closet_0",
      "primitives": [
        {
          "attributes": {
            "NORMAL": 31,
            "POSITION": 30,
            "TANGENT": 32,
            "TEXCOORD_0": 33
          },
          "indices": 34,
          "material": 0,
          "mode": 4
        }
      ]
    },
    {
      "name": "bathroom table.006_Bathroom closet_0",
      "primitives": [
        {
          "attributes": {
            "NORMAL": 36,
            "POSITION": 35,
            "TANGENT": 37,
            "TEXCOORD_0": 38
          },
          "indices": 39,
          "material": 0,
          "mode": 4
        }
      ]
    },
    {
      "name": "Cube_Bathroom closet_0",
      "primitives": [
        {
          "attributes": {
            "NORMAL": 41,
            "POSITION": 40,
            "TANGENT": 42,
            "TEXCOORD_0": 43
          },
          "indices": 44,
          "material": 0,
          "mode": 4
        }
      ]
    },
    {
      "name": "bathroom table.007_Bathroom closet_0",
      "primitives": [
        {
          "attributes": {
            "NORMAL": 46,
            "POSITION": 45,
            "TANGENT": 47,
            "TEXCOORD_0": 48
          },
          "indices": 49,
          "material": 0,
          "mode": 4
        }
      ]
    },
    {
      "name": "bathroom table.008_Bathroom closet_0",
      "primitives": [
        {
          "attributes": {
            "NORMAL": 51,
            "POSITION": 50,
            "TANGENT": 52,
            "TEXCOORD_0": 53
          },
          "indices": 54,
          "material": 0,
          "mode": 4
        }
      ]
    },
    {
      "name": "Cube.001_Bathroom closet_0",
      "primitives": [
        {
          "attributes": {
            "NORMAL": 56,
            "POSITION": 55,
            "TANGENT": 57,
            "TEXCOORD_0": 58
          },
          "indices": 59,
          "material": 0,
          "mode": 4
        }
      ]
    },
    {
      "name": "mirror_Bathroom closet_0",
      "primitives": [
        {
          "attributes": {
            "NORMAL": 61,
            "POSITION": 60,
            "TANGENT": 62,
            "TEXCOORD_0": 63
          },
          "indices": 64,
          "material": 0,
          "mode": 4
        }
      ]
    }
  ],
  "nodes": [
    {
      "children": [
        1
      ],
      "matrix": [
        1.0,
        0.0,
        0.0,
        0.0,
        0.0,
        2.220446049250313e-16,
        -1.0,
        0.0,
        0.0,
        1.0,
        2.220446049250313e-16,
        0.0,
        0.0,
        0.0,
        0.0,
        1.0
      ],
      "name": "Sketchfab_model"
    },
    {
      "children": [
        2
      ],
      "matrix": [
        0.009999999776482582,
        0.0,
        0.0,
        0.0,
        0.0,
        0.0,
        0.009999999776482582,
        0.0,
        0.0,
        -0.009999999776482582,
        0.0,
        0.0,
        0.0,
        0.0,
        0.0,
        1.0
      ],
      "name": "Bathroom closet.fbx"
    },
    {
      "children": [
        3,
        5,
        7,
        9,
        11,
        13,
        15,
        17,
        19,
        21,
        23,
        25,
        27
      ],
      "name": "RootNode"
    },
    {
      "children": [
        4
      ],
      "matrix": [
        100.0,
        0.0,
        0.0,
        0.0,
        0.0,
        -1.629206793918314e-05,
        -99.99999999999868,
        0.0,
        0.0,
        99.99999999999868,
        -1.629206793918314e-05,
        0.0,
        1.044774055480957,
        93.6240005493164,
        -58.063419342041016,
        1.0
      ],
      "name": "bathroom table"
    },
    {
      "mesh": 0,
      "name": "bathroom table_Bathroom closet_0"
    },
    {
      "children": [
        6
      ],
      "matrix": [
        100.0,
        0.0,
        0.0,
        0.0,
        -0.0,
        -1.629206793918314e-05,
        -99.99999999999868,
        0.0,
        0.0,
        99.99999999999868,
        -1.629206793918314e-05,
        0.0,
        -5.451329231262207,
        46.22374725341797,
        -53.57253646850586,
        1.0
      ],
      "name": "bathroom table.001"
    },
    {
      "mesh": 1,
      "name": "bathroom table.001_Bathroom closet_0"
    },
    {
      "children": [
        8
      ],
      "matrix": [
        100.0,
        0.0,
        0.0,
        0.0,
        0.0,
        -1.629206793918314e-05,
        -99.99999999999868,
        0.0,
        0.0,
        99.99999999999868,
        -1.629206793918314e-05,
        0.0,
        82.09480285644531,
        61.62367630004883,
        -31.083171844482422,
        1.0
      ],
      "name": "bathroom table.002"
    },
    {
      "mesh": 2,
      "name": "bathroom table.002_Bathroom closet_0"
    },
    {
      "children": [
        10
      ],
      "matrix": [
        100.0,
        0.0,
        0.0,
        0.0,
        0.0,
        -1.629206793918314e-05,
        -99.99999999999868,
        0.0,
        0.0,
        99.99999999999868,
        -1.629206793918314e-05,
        0.0,
        1.044774055480957,
        93.6240005493164,
        -58.063419342041016,
        1.0
      ],
      "name": "bathroom table.003"
    },
    {
      "mesh": 3,
      "name": "bathroom table.003_Bathroom closet_0"
    },
    {
      "children": [
        12
      ],
      "matrix": [
        100.0,
        0.0,
        0.0,
        0.0,
        -0.0,
        -1.629206793918314e-05,
        -99.99999999999868,
        0.0,
        0.0,
        99.99999999999868,
        -1.629206793918314e-05,
        0.0,
        -5.451329231262207,
        78.70085144042969,
        -53.57253646850586,
        1.0
      ],
      "name": "bathroom table.005"
    },
    {
      "mesh": 4,
      "name": "bathroom table.005_Bathroom closet_0"
    },
    {
      "children": [
        14
      ],
      "matrix": [
        100.0,
        0.0,
        0.0,
        0.0,
        -0.0,
        -1.629206793918314e-05,
        -99.99999999999868,
        0.0,
        0.0,
        99.99999999999868,
        -1.629206793918314e-05,
        0.0,
        -0.23332834243774414,
        98.07461547851563,
        -73.72160339355469,
        1.0
      ],
      "name": "sink"
    },
    {
      "mesh": 5,
      "name": "sink_Bathroom closet_0"
    },
    {
      "children": [
        16
      ],
      "matrix": [
        -81.91523012052615,
        -5.551115123125783e-15,
        57.357606943641294,
        0.0,
        57.35760694364125,
        -4.371138984105016e-06,
        81.91523012052605,
        0.0,
        2.5071807019383385e-06,
        99.9999999999999,
        3.580628549215703e-06,
        0.0,
        34.94450759887695,
        98.0728530883789,
        -69.18287658691406,
        1.0
      ],
      "name": "soap"
    },
    {
      "mesh": 6,
      "name": "soap_Bathroom closet_0"
    },
    {
      "children": [
        18
      ],
      "matrix": [
        100.0,
        0.0,
        0.0,
        0.0,
        0.0,
        -1.629206793918314e-05,
        -99.99999999999868,
        0.0,
        0.0,
        99.99999999999868,
        -1.629206793918314e-05,
        0.0,
        1.044774055480957,
        95.57283782958984,
        -58.063419342041016,
        1.0
      ],
      "name": "bathroom table.006"
    },
    {
      "mesh": 7,
      "name": "bathroom table.006_Bathroom closet_0"
    },
    {
      "children": [
        20
      ],
      "matrix": [
        100.0,
        0.0,
        0.0,
        0.0,
        -0.0,
        -1.629206793918314e-05,
        -99.99999999999868,
        0.0,
        0.0,
        99.99999999999868,
        -1.629206793918314e-05,
        0.0,
        -5.451329231262207,
        62.31861877441406,
        -30.833839416503906,
        1.0
      ],
      "name": "Cube"
    },
    {
      "mesh": 8,
      "name": "Cube_Bathroom closet_0"
    },
    {
      "children": [
        22
      ],
      "matrix": [
        100.0,
        0.0,
        0.0,
        0.0,
        -0.0,
        -1.629206793918314e-05,
        -99.99999999999868,
        0.0,
        0.0,
        99.99999999999868,
        -1.629206793918314e-05,
        0.0,
        -47.15582275390625,
        63.12383270263672,
        -54.4600715637207,
        1.0
      ],
      "name": "bathroom table.007"
    },
    {
      "mesh": 9,
      "name": "bathroom table.007_Bathroom closet_0"
    },
    {
      "children": [
        24
      ],
      "matrix": [
        100.0,
        0.0,
        0.0,
        0.0,
        0.0,
        -1.629206793918314e-05,
        -99.99999999999868,
        0.0,
        0.0,
        99.99999999999868,
        -1.629206793918314e-05,
        0.0,
        36.253173828125,
        63.12383270263672,
        -54.4600715637207,
        1.0
      ],
      "name": "bathroom table.008"
    },
    {
      "mesh": 10,
      "name": "bathroom table.008_Bathroom closet_0"
    },
    {
      "children": [
        26
      ],
      "matrix": [
        100.0,
        0.0,
        0.0,
        0.0,
        -0.0,
        -1.629206793918314e-05,
        -99.99999999999868,
        0.0,
        0.0,
        99.99999999999868,
        -1.629206793918314e-05,
        0.0,
        -5.451329231262207,
        94.79861450195313,
        -30.833839416503906,
        1.0
      ],
      "name": "Cube.001"
    },
    {
      "mesh": 11,
      "name": "Cube.001_Bathroom closet_0"
    },
    {
      "children": [
        28
      ],
      "matrix": [
        100.0,
        0.0,
        0.0,
        0.0,
        -0.0,
        -1.629206793918314e-05,
        -99.99999999999868,
        0.0,
        0.0,
        99.99999999999868,
        -1.629206793918314e-05,
        0.0,
        -2.692079544067383,
        148.11862182617188,
        -79.43696594238281,
        1.0
      ],
      "name": "mirror"
    },
    {
      "mesh": 12,
      "name": "mirror_Bathroom closet_0"
    }
  ],
  "samplers": [
    {
      "magFilter": 9729,
      "minFilter": 9987,
      "wrapS": 10497,
      "wrapT": 10497
    }
  ],
  "scene": 0,
  "scenes": [
    {
      "name": "Sketchfab_Scene",
      "nodes": [
        0
      ]
    }
  ],
  "textures": [
    {
      "sampler": 0,
      "source": 0
    },
    {
      "sampler": 0,
      "source": 1
    },
    {
      "sampler": 0,
      "source": 2
    },
    {
      "sampler": 0,
      "source": 3
    }
  ]
}
