{
  "accessors": [
    {
      "bufferView": 2,
      "componentType": 5126,
      "count": 16012,
      "max": [
        0.36386895179748535,
        0.2475341558456421,
        0.28594326972961426
      ],
      "min": [
        -0.37578022480010986,
        -0.23547275364398956,
        -0.2485114336013794
      ],
      "type": "VEC3"
    },
    {
      "bufferView": 2,
      "byteOffset": 192144,
      "componentType": 5126,
      "count": 16012,
      "max": [
        0.9998013973236084,
        0.9988846778869629,
        0.9998464584350586
      ],
      "min": [
        -0.9996859431266785,
        -0.9986919164657593,
        -0.9999935626983643
      ],
      "type": "VEC3"
    },
    {
      "bufferView": 3,
      "componentType": 5126,
      "count": 16012,
      "max": [
        0.999534010887146,
        0.9955392479896545,
        0.999958336353302,
        1.0
      ],
      "min": [
        -0.9972431063652039,
        -0.9997330904006958,
        -0.999444305896759,
        -1.0
      ],
      "type": "VEC4"
    },
    {
      "bufferView": 1,
      "componentType": 5126,
      "count": 16012,
      "max": [
        0.980817437171936,
        0.5701673030853271
      ],
      "min": [
        0.6267208456993103,
        0.38400378823280334
      ],
      "type": "VEC2"
    },
    {
      "bufferView": 1,
      "byteOffset": 128096,
      "componentType": 5126,
      "count": 16012,
      "max": [
        0.980817437171936,
        0.5701673030853271
      ],
      "min": [
        0.6267208456993103,
        0.38400378823280334
      ],
      "type": "VEC2"
    },
    {
      "bufferView": 0,
      "componentType": 5125,
      "count": 92928,
      "type": "SCALAR"
    },
    {
      "bufferView": 2,
      "byteOffset": 384288,
      "componentType": 5126,
      "count": 15950,
      "max": [
        0.36406731605529785,
        0.2942808270454407,
        0.2339269518852234
      ],
      "min": [
        -0.3738359808921814,
        -0.3176474869251251,
        -0.21758908033370972
      ],
      "type": "VEC3"
    },
    {
      "bufferView": 2,
      "byteOffset": 575688,
      "componentType": 5126,
      "count": 15950,
      "max": [
        0.999957263469696,
        0.99960857629776,
        0.9999899864196777
      ],
      "min": [
        -0.9999787211418152,
        -0.9988667964935303,
        -0.999974250793457
      ],
      "type": "VEC3"
    },
    {
      "bufferView": 3,
      "byteOffset": 256192,
      "componentType": 5126,
      "count": 15950,
      "max": [
        0.998822033405304,
        0.9990582466125488,
        0.9991826415061951,
        1.0
      ],
      "min": [
        -0.9700778126716614,
        -0.9982671141624451,
        -0.9999769330024719,
        -1.0
      ],
      "type": "VEC4"
    },
    {
      "bufferView": 1,
      "byteOffset": 256192,
      "componentType": 5126,
      "count": 15950,
      "max": [
        0.9818979501724243,
        0.7771726846694946
      ],
      "min": [
        0.6298524737358093,
        0.5938472747802734
      ],
      "type": "VEC2"
    },
    {
      "bufferView": 1,
      "byteOffset": 383792,
      "componentType": 5126,
      "count": 15950,
      "max": [
        0.9818979501724243,
        0.7771726846694946
      ],
      "min": [
        0.6298524737358093,
        0.5938472747802734
      ],
      "type": "VEC2"
    },
    {
      "bufferView": 0,
      "byteOffset": 371712,
      "componentType": 5125,
      "count": 92928,
      "type": "SCALAR"
    },
    {
      "bufferView": 2,
      "byteOffset": 767088,
      "componentType": 5126,
      "count": 15949,
      "max": [
        0.15414312481880188,
        0.29759493470191956,
        0.2013840675354004
      ],
      "min": [
        -0.15507914125919342,
        -0.29401713609695435,
        -0.18732067942619324
      ],
      "type": "VEC3"
    },
    {
      "bufferView": 2,
      "byteOffset": 958476,
      "componentType": 5126,
      "count": 15949,
      "max": [
        0.9999947547912598,
        0.9998397827148438,
        0.9999900460243225
      ],
      "min": [
        -0.9999867081642151,
        -0.9993265867233276,
        -0.999973714351654
      ],
      "type": "VEC3"
    },
    {
      "bufferView": 3,
      "byteOffset": 511392,
      "componentType": 5126,
      "count": 15949,
      "max": [
        0.9999861717224121,
        0.9999956488609314,
        0.9998255968093872,
        1.0
      ],
      "min": [
        -0.9805604815483093,
        -0.9999997019767761,
        -0.9574253559112549,
        -1.0
      ],
      "type": "VEC4"
    },
    {
      "bufferView": 1,
      "byteOffset": 511392,
      "componentType": 5126,
      "count": 15949,
      "max": [
        0.9603456258773804,
        0.3708552122116089
      ],
      "min": [
        0.7718273401260376,
        0.009800435975193977
      ],
      "type": "VEC2"
    },
    {
      "bufferView": 1,
      "byteOffset": 638984,
      "componentType": 5126,
      "count": 15949,
      "max": [
        0.9603456258773804,
        0.3708552122116089
      ],
      "min": [
        0.7718273401260376,
        0.009800435975193977
      ],
      "type": "VEC2"
    },
    {
      "bufferView": 0,
      "byteOffset": 743424,
      "componentType": 5125,
      "count": 92928,
      "type": "SCALAR"
    },
    {
      "bufferView": 2,
      "byteOffset": 1149864,
      "componentType": 5126,
      "count": 16017,
      "max": [
        0.16538897156715393,
        0.37136542797088623,
        0.2896631956100464
      ],
      "min": [
        -0.1605255901813507,
        -0.37574493885040283,
        -0.252880334854126
      ],
      "type": "VEC3"
    },
    {
      "bufferView": 2,
      "byteOffset": 1342068,
      "componentType": 5126,
      "count": 16017,
      "max": [
        0.999951183795929,
        0.9996029138565063,
        0.9997734427452087
      ],
      "min": [
        -0.9999816417694092,
        -0.9998448491096497,
        -0.9999534487724304
      ],
      "type": "VEC3"
    },
    {
      "bufferView": 3,
      "byteOffset": 766576,
      "componentType": 5126,
      "count": 16017,
      "max": [
        0.9999807476997375,
        0.9996906518936157,
        0.9999648928642273,
        1.0
      ],
      "min": [
        -0.9999955892562866,
        -0.9994698762893677,
        -0.9999249577522278,
        -1.0
      ],
      "type": "VEC4"
    },
    {
      "bufferView": 1,
      "byteOffset": 766576,
      "componentType": 5126,
      "count": 16017,
      "max": [
        0.9891342520713806,
        0.9896551966667175
      ],
      "min": [
        0.6186093688011169,
        0.7963754534721375
      ],
      "type": "VEC2"
    },
    {
      "bufferView": 1,
      "byteOffset": 894712,
      "componentType": 5126,
      "count": 16017,
      "max": [
        0.9891342520713806,
        0.9896551966667175
      ],
      "min": [
        0.6186093688011169,
        0.7963754534721375
      ],
      "type": "VEC2"
    },
    {
      "bufferView": 0,
      "byteOffset": 1115136,
      "componentType": 5125,
      "count": 92928,
      "type": "SCALAR"
    },
    {
      "bufferView": 2,
      "byteOffset": 1534272,
      "componentType": 5126,
      "count": 1442,
      "max": [
        0.4838028848171234,
        0.48254865407943726,
        0.08973276615142822
      ],
      "min": [
        -0.48229315876960754,
        -0.48254865407943726,
        -0.09817516803741455
      ],
      "type": "VEC3"
    },
    {
      "bufferView": 2,
      "byteOffset": 1551576,
      "componentType": 5126,
      "count": 1442,
      "max": [
        0.9993352890014648,
        0.9994806051254272,
        0.9998368620872498
      ],
      "min": [
        -0.9993201494216919,
        -0.9994806051254272,
        -0.9998564720153809
      ],
      "type": "VEC3"
    },
    {
      "bufferView": 3,
      "byteOffset": 1022848,
      "componentType": 5126,
      "count": 1442,
      "max": [
        0.6044528484344482,
        0.9997121095657349,
        0.9992086887359619,
        1.0
      ],
      "min": [
        -0.8852433562278748,
        -0.15269243717193604,
        -0.9995479583740234,
        1.0
      ],
      "type": "VEC4"
    },
    {
      "bufferView": 1,
      "byteOffset": 1022848,
      "componentType": 5126,
      "count": 1442,
      "max": [
        0.7199839353561401,
        0.9339901804924011
      ],
      "min": [
        0.4481087028980255,
        0.08898687362670898
      ],
      "type": "VEC2"
    },
    {
      "bufferView": 1,
      "byteOffset": 1034384,
      "componentType": 5126,
      "count": 1442,
      "max": [
        0.7199839353561401,
        0.9339901804924011
      ],
      "min": [
        0.4481087028980255,
        0.08898687362670898
      ],
      "type": "VEC2"
    },
    {
      "bufferView": 0,
      "byteOffset": 1486848,
      "componentType": 5125,
      "count": 8160,
      "type": "SCALAR"
    },
    {
      "bufferView": 2,
      "byteOffset": 1568880,
      "componentType": 5126,
      "count": 2559,
      "max": [
        0.5602717995643616,
        0.5799326300621033,
        0.4206256866455078
      ],
      "min": [
        -0.5595989227294922,
        -0.5799327492713928,
        -0.3993743658065796
      ],
      "type": "VEC3"
    },
    {
      "bufferView": 2,
      "byteOffset": 1599588,
      "componentType": 5126,
      "count": 2559,
      "max": [
        0.9990647435188293,
        0.9980453252792358,
        0.9999874830245972
      ],
      "min": [
        -0.999261736869812,
        -0.9980452656745911,
        -0.9999999403953552
      ],
      "type": "VEC3"
    },
    {
      "bufferView": 3,
      "byteOffset": 1045920,
      "componentType": 5126,
      "count": 2559,
      "max": [
        0.9885194897651672,
        0.9992517232894897,
        0.9992292523384094,
        1.0
      ],
      "min": [
        -0.9979948401451111,
        -0.999269962310791,
        -0.9426851868629456,
        1.0
      ],
      "type": "VEC4"
    },
    {
      "bufferView": 1,
      "byteOffset": 1045920,
      "componentType": 5126,
      "count": 2559,
      "max": [
        0.595686137676239,
        0.999882161617279
      ],
      "min": [
        0.00011791779252234846,
        0.00011797142360592261
      ],
      "type": "VEC2"
    },
    {
      "bufferView": 1,
      "byteOffset": 1066392,
      "componentType": 5126,
      "count": 2559,
      "max": [
        0.595686137676239,
        0.999882161617279
      ],
      "min": [
        0.00011791779252234846,
        0.00011797142360592261
      ],
      "type": "VEC2"
    },
    {
      "bufferView": 0,
      "byteOffset": 1519488,
      "componentType": 5125,
      "count": 14502,
      "type": "SCALAR"
    }
  ],
  "asset": {
    "extras": {
      "author": "Jagguz_wrld (https://sketchfab.com/jagathkrishna148)",
      "license": "CC-BY-4.0 (http://creativecommons.org/licenses/by/4.0/)",
      "source": "https://sketchfab.com/3d-models/sofa-807266eec4474ea0b3c3fd6fa495876f",
      "title": "sofa"
    },
    "generator": "Sketchfab-15.87.0",
    "version": "2.0"
  },
  "bufferViews": [
    {
      "buffer": 0,
      "byteLength": 1577496,
      "name": "floatBufferViews",
      "target": 34963
    },
    {
      "buffer": 0,
      "byteLength": 1086864,
      "byteOffset": 1577496,
      "byteStride": 8,
      "name": "floatBufferViews",
      "target": 34962
    },
    {
      "buffer": 0,
      "byteLength": 1630296,
      "byteOffset": 2664360,
      "byteStride": 12,
      "name": "floatBufferViews",
      "target": 34962
    },
    {
      "buffer": 0,
      "byteLength": 1086864,
      "byteOffset": 4294656,
      "byteStride": 16,
      "name": "floatBufferViews",
      "target": 34962
    }
  ],
  "buffers": [
    {
      "byteLength": 5381520,
      "uri": "scene.bin"
    }
  ],
  "images": [
    {
      "uri": "textures/sofa_baseColor.png"
    },
    {
      "uri": "textures/sofa_normal.png"
    }
  ],
  "materials": [
    {
      "doubleSided": true,
      "name": "sofa",
      "normalTexture": {
        "index": 1
      },
      "pbrMetallicRoughness": {
        "baseColorTexture": {
          "index": 0
        },
        "metallicFactor": 0.0,
        "roughnessFactor": 0.9227211639832779
      }
    }
  ],
  "meshes": [
    {
      "name": "pillow1_sofa_0",
      "primitives": [
        {
          "attributes": {
            "NORMAL": 1,
            "POSITION": 0,
            "TANGENT": 2,
            "TEXCOORD_0": 3,
            "TEXCOORD_1": 4
          },
          "indices": 5,
          "material": 0,
          "mode": 4
        }
      ]
    },
    {
      "name": "pillow3_sofa_0",
      "primitives": [
        {
          "attributes": {
            "NORMAL": 7,
            "POSITION": 6,
            "TANGENT": 8,
            "TEXCOORD_0": 9,
            "TEXCOORD_1": 10
          },
          "indices": 11,
          "material": 0,
          "mode": 4
        }
      ]
    },
    {
      "name": "small pillow_sofa_0",
      "primitives": [
        {
          "attributes": {
            "NORMAL": 13,
            "POSITION": 12,
            "TANGENT": 14,
            "TEXCOORD_0": 15,
            "TEXCOORD_1": 16
          },
          "indices": 17,
          "material": 0,
          "mode": 4
        }
      ]
    },
    {
      "name": "pillow2_sofa_0",
      "primitives": [
        {
          "attributes": {
            "NORMAL": 19,
            "POSITION": 18,
            "TANGENT": 20,
            "TEXCOORD_0": 21,
            "TEXCOORD_1": 22
          },
          "indices": 23,
          "material": 0,
          "mode": 4
        }
      ]
    },
    {
      "name": "sofa seat_sofa_0",
      "primitives": [
        {
          "attributes": {
            "NORMAL": 25,
            "POSITION": 24,
            "TANGENT": 26,
            "TEXCOORD_0": 27,
            "TEXCOORD_1": 28
          },
          "indices": 29,
          "material": 0,
          "mode": 4
        }
      ]
    },
    {
      "name": "sofa_sofa_0",
      "primitives": [
        {
          "attributes": {
            "NORMAL": 31,
            "POSITION": 30,
            "TANGENT": 32,
            "TEXCOORD_0": 33,
            "TEXCOORD_1": 34
          },
          "indices": 35,
          "material": 0,
          "mode": 4
        }
      ]
    }
  ],
  "nodes": [
    {
      "children": [
        1
      ],
      "matrix": [
        -1.9987319989329478e-16,
        5.5118212023682554e-17,
        0.900148868560791,
        0.0,
        0.900148868560791,
        -1.447549759562412e-16,
        1.9987319989329475e-16,
        0.0,
        1.4475497595624114e-16,
        0.900148868560791,
        -5.5118212023682554e-17,
        0.0,
        0.0,
        0.0,
        0.0,
        1.0
      ],
      "name": "Sketchfab_model"
    },
    {
      "children": [
        2
      ],
      "matrix": [
        0.009999999776482582,
        0.0,
        0.0,
        0.0,
        0.0,
        0.0,
        0.009999999776482582,
        0.0,
        0.0,
        -0.009999999776482582,
        0.0,
        0.0,
        0.0,
        0.0,
        0.0,
        1.0
      ],
      "name": "e84fab51a59f4b86a2fc54ec8d72348e.fbx"
    },
    {
      "children": [
        3,
        5,
        7,
        9,
        11,
        13
      ],
      "name": "RootNode"
    },
    {
      "children": [
        4
      ],
      "matrix": [
        100.0,
        0.0,
        0.0,
        0.0,
        -0.0,
        -1.629206793918314e-05,
        -99.99999999999868,
        0.0,
        0.0,
        99.99999999999868,
        -1.629206793918314e-05,
        0.0,
        -10.387812614440918,
        69.6417007446289,
        -39.68149948120117,
        1.0
      ],
      "name": "pillow1"
    },
    {
      "mesh": 0,
      "name": "pillow1_sofa_0"
    },
    {
      "children": [
        6
      ],
      "matrix": [
        100.0,
        0.0,
        0.0,
        0.0,
        -0.0,
        -1.629206793918314e-05,
        -99.99999999999868,
        0.0,
        0.0,
        99.99999999999868,
        -1.629206793918314e-05,
        0.0,
        -12.76491928100586,
        70.12139129638672,
        39.04480743408203,
        1.0
      ],
      "name": "pillow3"
    },
    {
      "mesh": 1,
      "name": "pillow3_sofa_0"
    },
    {
      "children": [
        8
      ],
      "matrix": [
        100.0,
        0.0,
        0.0,
        0.0,
        -0.0,
        -1.629206793918314e-05,
        -99.99999999999868,
        0.0,
        0.0,
        99.99999999999868,
        -1.629206793918314e-05,
        0.0,
        -13.093994140625,
        66.86327362060547,
        0.48611512780189514,
        1.0
      ],
      "name": "small pillow"
    },
    {
      "mesh": 2,
      "name": "small pillow_sofa_0"
    },
    {
      "children": [
        10
      ],
      "matrix": [
        100.0,
        0.0,
        0.0,
        0.0,
        -0.0,
        -1.629206793918314e-05,
        -99.99999999999868,
        0.0,
        0.0,
        99.99999999999868,
        -1.629206793918314e-05,
        0.0,
        -34.32622146606445,
        69.7170639038086,
        -2.6921346187591553,
        1.0
      ],
      "name": "pillow2"
    },
    {
      "mesh": 3,
      "name": "pillow2_sofa_0"
    },
    {
      "children": [
        12
      ],
      "matrix": [
        100.0,
        0.0,
        0.0,
        0.0,
        0.0,
        -1.629206793918314e-05,
        -99.99999999999868,
        0.0,
        0.0,
        99.99999999999868,
        -1.629206793918314e-05,
        0.0,
        4.476950645446777,
        46.151329040527344,
        2.4944674237303843e-07,
        1.0
      ],
      "name": "sofa seat"
    },
    {
      "mesh": 4,
      "name": "sofa seat_sofa_0"
    },
    {
      "children": [
        14
      ],
      "matrix": [
        100.0,
        0.0,
        0.0,
        0.0,
        -0.0,
        -1.629206793918314e-05,
        -99.99999999999868,
        0.0,
        0.0,
        99.99999999999868,
        -1.629206793918314e-05,
        0.0,
        -0.01459829043596983,
        39.88922882080078,
        -2.3787627014826285e-06,
        1.0
      ],
      "name": "sofa"
    },
    {
      "mesh": 5,
      "name": "sofa_sofa_0"
    }
  ],
  "samplers": [
    {
      "magFilter": 9729,
      "minFilter": 9987,
      "wrapS": 10497,
      "wrapT": 10497
    }
  ],
  "scene": 0,
  "scenes": [
    {
      "name": "Sketchfab_Scene",
      "nodes": [
        0
      ]
    }
  ],
  "textures": [
    {
      "sampler": 0,
      "source": 0
    },
    {
      "sampler": 0,
      "source": 1
    }
  ]
}
